PathFileType	4	(X/Y/Z)	OpenSim_Sub10_EMGBaseline_Accel.trc
DataRate	CameraRate	NumFrames	NumMarkers	Units	OrigDataRate	OrigDataStartFrame	OrigNumFrames
100	100	27	8	m	100	4101	8201
Frame#	Time	torso_imu_offset_imu	pelvis_imu_offset_imu	tibia_r_imu_offset_imu	femur_r_imu_offset_imu	tibia_l_imu_offset_imu	femur_l_imu_offset_imu	toes_r_imu_offset_imu	toes_l_imu_offset_imu
				X1	Y1	Z1	X2	Y2	Z2	X3	Y3	Z3	X4	Y4	Z4	X5	Y5	Z5	X6	Y6	Z6	X7	Y7	Z7	X8		Y8	Z8	

4101	41	8.02299100	-0.09953500	5.68030900	7.94826700	2.14238800	3.34354500	9.51052900	1.17328700	-0.20628500	8.86733500	-0.70458300	-0.42255100	2.40922600	-4.25706800	2.76918600	8.16428000	2.97424000	-0.06864100	5.32594300	-0.27069600	8.22758900	0.94407700	-1.22846000	9.86758000
4102	41.01000000	7.97297600	-0.14040200	5.67704700	8.03201500	2.10595800	3.30899000	9.52903700	1.52674600	-0.21432300	8.82862600	-0.81697200	-0.31059200	2.38396500	-3.66071900	2.59751500	8.06273100	2.74818900	-0.14550300	5.18760500	-0.02559100	8.54835100	2.02742100	-1.86160900	10.64852200
4103	41.02000000	7.97869800	-0.14524100	5.71558200	8.08480600	2.00828500	3.31571300	9.52094700	1.81013700	-0.11988300	8.93233100	-0.83486500	-0.33296400	2.74824900	-3.50072300	1.98672700	7.95110100	2.69546400	-0.21690900	5.05498900	-0.21158900	8.45996500	3.53421300	-1.77298600	11.95465100
4104	41.03000000	7.96060500	-0.23887700	5.80126000	8.15659500	2.01402400	3.20837600	9.39618900	1.87983300	-0.01033200	8.98596700	-0.89616800	-0.31409100	3.04203100	-3.71828800	1.44904400	7.75501800	2.52854800	-0.26117700	4.74277400	-0.28923100	8.62473700	4.93695300	-1.31930900	13.11723000
4105	41.04000000	7.98092900	-0.30184800	5.84054300	8.16282800	1.98713700	3.17164100	9.40281600	1.77128700	0.08496900	9.07330600	-0.92468800	-0.30699800	3.22670600	-4.17870100	1.50196000	7.54974500	2.38999900	-0.27003100	5.32746900	-0.11558800	8.43047800	5.53015100	-1.25070900	13.83244900
4106	41.05000000	7.89951600	-0.32152500	5.87724400	8.25403900	2.01135400	3.08430400	9.44649200	1.53799500	0.04987900	9.05421000	-0.85685500	-0.40677400	3.76332600	-4.62338300	1.53837000	7.43556500	2.26240700	-0.21510700	5.01472400	0.06928400	8.48919900	6.65724400	-1.43647800	14.43295600
4107	41.06000000	7.84152100	-0.34830500	5.90150900	8.29347100	2.03850000	3.00817200	9.61488100	1.41118900	0.08998800	9.00578000	-0.85656300	-0.48080600	4.39836500	-4.42485300	1.44871500	7.41102400	2.00198100	-0.12914300	5.02930200	0.02404400	8.65060700	7.94743800	-0.74486100	14.70753700
4108	41.07000000	7.92292100	-0.32103700	5.89452500	8.27439700	2.11664100	2.88770700	9.78265000	1.35771500	0.02711600	9.20810400	-0.86715800	-0.62656000	5.96366700	-4.06065500	1.99938700	7.34616100	1.82633200	0.02388700	4.98776100	0.13722800	8.68662000	8.53197900	-0.10470700	14.06409800
4109	41.08000000	8.12285100	-0.40034000	5.88637100	8.26147100	2.17845700	2.84048000	9.80370000	1.32273000	-0.08757200	9.26882700	-1.00682200	-0.73002800	8.35294900	-4.05385400	2.57651100	7.19392400	1.96362000	0.13530100	5.11411400	0.12649900	8.60012100	9.31836400	0.90859200	13.44567600
4110	41.09000000	8.26457200	-0.41642600	5.89944500	8.23411000	2.22890200	2.71913900	9.83321300	1.20709100	-0.13236100	9.07856400	-1.07915400	-0.57026300	10.66710000	-4.20570100	2.14727800	6.88693700	1.97522200	0.29019100	5.11859400	0.09510600	8.64314800	13.60540500	2.69384900	14.87048900
4111	41.10000000	8.50311700	-0.49326200	5.85635200	8.19605400	2.32224400	2.51653100	9.78814500	1.12024700	-0.22119900	9.03379100	-0.96574500	-0.36474300	11.90513700	-4.39438400	1.26916800	6.52823700	2.19378600	0.38665900	5.09815800	0.00034300	8.57927700	18.58344100	3.73419400	16.60250300
4112	41.11000000	8.58648500	-0.73532200	5.69268300	8.20796100	2.50265700	2.44150300	9.73174500	1.04845800	-0.22553200	8.93487700	-0.78940000	-0.30233300	12.50627800	-5.36489300	0.69140900	6.35097300	2.50485300	0.81121200	5.16985700	-0.10730200	8.47419600	19.18331800	1.71133800	15.42498000
4113	41.12000000	8.44935000	-0.73029300	5.76602000	8.25767800	2.67455500	2.43435000	9.66858900	0.89780400	-0.24034800	8.92091400	-0.51591200	-0.22048400	13.10380500	-5.25941600	0.32400100	6.42920600	2.98723700	1.31633300	4.97363000	-0.10735000	8.60944200	19.26538200	0.39489000	13.63416100
4114	41.13000000	8.44422000	-0.79517100	5.80380000	8.29203200	2.68561900	2.57599300	9.66556900	0.70588100	-0.24693000	9.01088500	-0.42418000	-0.23605000	14.93602700	-1.96640300	0.32026900	6.72527500	3.41334100	1.79962400	5.12409000	-0.07737000	8.61384900	20.27211700	0.08616600	12.39590800
4115	41.14000000	8.71701000	-0.90127300	5.86051600	8.34995900	2.71935200	2.76134300	9.86956900	0.72718800	-0.47790900	9.07803400	-0.51485600	-0.47323900	15.78855600	0.90984900	-0.28877700	7.38446300	3.59164100	2.02768300	4.97192300	0.00112400	8.78332200	22.12802400	-2.17564800	10.43094400
4116	41.15000000	9.21666100	-0.91442400	5.83480900	8.47700800	2.73111700	2.90623600	10.19631500	0.96759800	-0.42555400	9.24723500	-0.70334800	-0.86779900	13.76601100	0.86310500	-0.64332500	8.31291200	4.03122800	2.28672800	5.04097500	-0.09089100	8.70630700	22.25183300	-1.90390100	8.14956800
4117	41.16000000	9.39132000	-0.96965800	5.85350900	8.70306500	2.52786900	2.86924400	10.30687500	1.29880800	-0.44312800	9.36153600	-0.88725100	-1.19084100	11.83031000	-0.93597900	0.37202000	8.96517800	5.26954000	1.90320800	4.95202900	0.00227500	8.77834100	20.89304100	-1.77989800	5.27353400
4118	41.17000000	9.32573400	-1.03606400	5.90496400	8.87342600	2.20170200	2.77734700	10.27096600	1.52143000	-0.29687900	9.23044700	-0.89466500	-1.25250000	10.92655800	-2.79780900	1.20720700	9.03643900	6.29630900	1.05247300	5.39440500	0.17259500	8.60148500	19.53424100	-1.68901800	2.87045500
4119	41.18000000	9.19105000	-1.11272400	6.04510700	9.01731400	1.86988000	2.71305500	10.16284600	1.67775500	-0.28833800	9.01854400	-0.75281000	-1.12404800	9.83250200	-3.84115000	1.47781600	8.71129300	7.55463500	0.41888700	5.01971400	0.26659700	8.85104800	18.50946100	-1.91657600	1.55468600
4120	41.19000000	9.17126000	-1.11494300	6.05251600	9.20117800	1.65365600	2.62465100	10.16306300	1.64672100	-0.15114300	8.92109600	-0.43518300	-0.94768100	8.57693900	-3.82285800	1.31689300	8.16996500	8.82647700	-0.22899400	4.92084000	0.07639700	8.87497100	18.07416900	-2.35996300	0.93198100
4121	41.20000000	9.27422500	-1.03683900	6.15996700	9.32104900	1.52814900	2.51659500	10.22566500	1.35941700	0.05522000	8.96078100	-0.14654900	-0.92671300	8.47667700	-2.37806000	0.73038100	7.66348800	9.34408700	-0.49924800	4.99955200	0.09104800	8.89274700	17.75087700	-1.57172100	0.35686400
4122	41.21000000	9.45415100	-0.88676400	6.23254000	9.52310400	1.51624700	2.47970400	10.30483100	0.74494300	-0.15990800	9.24604400	-0.13191600	-1.01576600	9.74790200	-0.52919100	0.23624800	7.53256500	8.62649800	-0.26784900	5.01357000	0.27650900	9.01666100	16.38852600	-0.48793300	-0.62435200
4123	41.22000000	9.67015700	-0.77133700	6.34130800	9.70283400	1.67817900	2.38422000	10.51440000	0.22182800	-0.04635600	9.59772300	-0.28668800	-1.21117900	10.63667300	0.37698500	-0.06856600	7.77966900	7.85570600	-0.02675300	5.15258300	0.41432200	9.03529600	15.27476400	0.22411800	-1.31846100
4124	41.23000000	9.92586700	-0.69665300	6.38468200	9.85929600	1.94222900	2.16076100	10.81163200	0.06983300	0.25792000	9.86617400	-0.54751500	-1.35135600	10.24537800	0.30372600	0.11371000	7.96529500	7.06043800	-0.01927500	4.90317300	0.83881900	9.54939100	15.21722300	1.22417300	-0.71853600
4125	41.24000000	9.99438800	-0.66213600	6.40959000	9.95233100	2.15810800	1.93128900	11.02791100	0.18195300	0.63054300	10.09693300	-0.83216500	-1.35517300	9.19631400	-0.27368900	0.41787300	8.20596700	6.23235300	0.19443000	4.94666200	0.24489900	9.20110200	15.24360800	2.27176100	0.65347000
4126	41.25000000	9.90322000	-0.68218800	6.47763700	9.96765000	2.32161800	1.77516100	11.03671500	0.44613100	0.61960200	10.18980400	-1.00663600	-1.29691700	8.69202200	-1.04411800	0.71200800	8.29214000	5.47984900	0.69541400	4.88450800	0.58710200	9.38314000	13.19777000	3.82052100	0.95041000
4127	41.26000000	9.82312500	-0.78848400	6.50080600	9.89958500	2.54028400	2.03969500	10.98331400	0.72909800	0.83445200	10.15801700	-1.25113800	-1.23208300	8.82666000	-1.71228900	0.54155600	8.23543600	4.78293300	1.23065200	5.29252900	0.71407600	9.31020900	12.19463600	7.44344200	-4.33026300
